<svg xmlns="http://www.w3.org/2000/svg" viewBox="0 0 2464 448" role="img" aria-label="Bottega"><path fill="#E04B42" d="M 418 87C 419 87 420 87 421 87C 429 89 437 94 442 100C 443 103 443 103 443 105C 441 107 440 108 438 108C 437 108 436 109 435 109C 434 109 433 109 432 109C 432 109 432 109 429 109C 407 110 390 116 374 131C 371 134 369 136 367 137C 353 150 347 167 342 184C 341 185 341 186 341 187C 337 200 337 212 337 225C 337 228 337 230 337 233C 337 248 338 261 342 275C 342 276 343 277 343 278C 345 285 347 292 350 299C 350 300 351 301 351 302C 353 307 356 310 359 314C 360 316 360 318 361 321C 363 321 364 321 366 321C 366 320 366 318 366 317C 366 316 366 315 366 315C 366 312 366 312 364 309C 361 305 360 299 360 294C 359 291 359 289 358 287C 358 286 358 284 358 283C 357 279 356 275 355 271C 353 264 352 256 352 249C 352 248 352 248 352 245C 352 230 353 216 357 201C 358 200 358 199 358 198C 360 192 362 187 366 182C 367 180 368 177 369 175C 379 155 397 140 418 132C 421 131 421 131 424 129C 429 127 434 127 440 127C 441 127 442 127 442 127C 445 127 448 127 450 127C 451 127 452 127 453 127C 456 127 458 127 462 128C 464 131 463 134 463 138C 462 141 462 141 461 145C 458 153 457 161 455 169C 454 176 453 182 452 189C 451 191 451 193 451 196C 451 196 452 197 452 197C 458 197 462 194 467 191C 475 186 483 181 492 176C 510 167 510 167 516 162C 520 160 521 159 525 160C 527 162 530 163 532 165C 534 167 537 169 540 170C 543 171 545 173 548 175C 550 176 552 177 554 178C 557 179 559 181 562 183C 563 183 564 184 565 184C 568 186 568 186 571 188C 574 191 578 194 582 196C 584 197 585 198 586 199C 587 199 588 199 588 200C 590 201 590 201 592 203C 593 204 593 204 596 204C 596 204 597 204 598 204C 600 200 599 196 598 192C 597 188 597 188 595 185C 592 180 591 175 590 170C 589 167 588 164 587 161C 585 156 584 152 583 147C 583 146 583 146 582 144C 580 135 578 126 582 118C 587 111 593 106 599 102C 601 100 603 98 606 96C 607 95 609 94 610 93C 610 93 610 93 613 91C 622 86 631 87 641 87C 642 87 643 87 644 87C 649 87 653 88 658 91C 660 92 662 93 664 94C 670 96 674 100 679 103C 680 103 680 103 682 105C 687 108 691 112 695 115C 696 116 697 116 697 117C 706 124 712 132 718 142C 718 142 718 142 720 145C 720 145 720 145 721 147C 723 150 723 150 725 152C 727 155 728 158 730 161C 731 164 732 168 734 171C 741 185 744 201 746 217C 746 218 746 219 746 220C 749 250 746 283 732 309C 731 311 730 313 729 315C 720 335 708 355 692 370C 691 370 691 370 690 370C 690 370 690 370 689 372C 688 374 686 376 684 378C 682 379 682 379 680 381C 676 386 672 389 667 393C 666 394 666 394 665 395C 657 401 649 406 640 411C 638 412 637 413 635 414C 632 416 628 418 624 420C 622 421 622 421 620 423C 615 425 611 426 606 428C 605 428 604 429 603 429C 577 438 551 441 523 441C 523 441 523 441 521 441C 503 441 485 440 467 436C 467 435 467 435 465 435C 446 430 430 423 414 412C 412 411 411 410 409 409C 396 400 383 391 373 379C 372 378 371 377 369 376C 356 364 347 351 338 336C 336 334 335 332 333 330C 320 312 314 289 308 267C 308 266 308 266 308 265C 302 239 301 210 309 185C 310 181 311 178 311 175C 316 156 324 140 337 125C 337 125 337 125 338 123C 346 114 354 107 364 101C 366 100 366 100 368 98C 372 95 377 93 381 91C 382 90 383 90 384 89C 394 85 407 86 418 87Z"/><path fill="#56AE55" d="M 62 41C 90 40 116 40 143 45C 147 46 150 47 154 47C 163 49 173 50 182 54C 185 55 188 56 190 56C 194 58 197 59 200 62C 202 63 202 63 205 65C 210 67 213 70 216 74C 217 74 218 75 218 76C 223 80 228 85 232 91C 232 91 232 91 234 94C 245 111 247 134 243 154C 243 156 242 158 242 160C 242 161 242 161 242 162C 240 169 238 174 234 179C 233 180 233 181 232 183C 225 198 212 211 197 218C 197 219 197 221 197 222C 197 222 197 222 200 223C 206 225 211 226 216 230C 217 231 219 231 220 232C 241 241 257 258 267 278C 268 279 268 280 269 281C 272 285 273 290 274 295C 274 296 275 297 275 298C 281 321 279 346 268 367C 267 369 265 371 264 373C 264 373 264 373 262 375C 261 378 259 380 257 383C 257 384 256 384 255 385C 248 395 239 402 229 409C 228 410 227 410 226 411C 190 434 144 436 102 436C 101 436 100 436 99 436C 93 436 87 436 81 436C 74 436 67 436 60 436C 54 436 48 436 42 436C 40 436 37 436 35 436C 31 436 27 436 24 436C 23 436 22 436 21 436C 13 436 8 435 0 433C 0 305 0 177 0 45C 13 42 13 42 20 41C 20 41 20 41 22 41C 25 41 27 41 30 41C 32 41 34 41 36 41C 40 41 44 41 48 41C 53 41 57 41 62 41ZM 75 113C 72 117 73 120 73 125C 73 125 73 126 73 127C 73 130 73 132 73 135C 73 136 73 138 73 140C 73 144 73 147 73 151C 73 156 73 161 72 166C 72 169 72 173 72 177C 72 178 72 180 72 182C 72 184 72 187 72 189C 72 190 72 191 72 191C 72 195 73 197 75 200C 83 206 98 203 108 202C 110 201 113 201 115 201C 123 200 129 199 136 194C 138 193 140 192 142 192C 152 188 160 179 166 170C 169 164 168 159 168 153C 168 152 168 150 168 149C 168 138 165 131 158 123C 144 110 125 111 106 111C 103 111 100 111 97 111C 95 111 93 111 91 111C 90 111 89 111 88 111C 84 111 79 111 75 113ZM 75 268C 72 272 73 277 73 281C 73 282 73 283 73 284C 73 287 73 290 73 292C 73 294 73 296 73 298C 73 302 73 306 73 311C 73 316 73 321 73 326C 73 330 73 334 73 339C 73 340 73 342 73 344C 73 347 73 350 73 353C 73 353 73 354 73 355C 73 362 73 362 75 365C 78 367 81 366 85 366C 86 366 87 366 87 366C 96 366 105 366 113 367C 117 367 121 367 125 367C 130 367 135 367 140 367C 142 367 144 367 146 367C 160 367 169 364 181 355C 182 354 183 353 184 352C 185 351 186 350 187 350C 194 341 199 331 199 319C 199 311 196 304 193 297C 193 296 192 295 192 295C 188 285 179 275 169 271C 162 268 155 267 147 267C 147 267 147 267 145 267C 143 267 140 267 138 267C 136 267 134 267 132 267C 129 267 125 267 121 267C 117 267 112 267 107 267C 104 267 100 267 97 267C 95 267 93 267 92 267C 89 267 87 267 84 267C 84 267 84 267 82 267C 79 267 77 267 75 268Z"/><path fill="#56AE55" d="M 1945 46C 1947 46 1949 47 1951 47C 1959 49 1967 52 1975 55C 1976 56 1978 56 1979 56C 1982 57 1984 58 1986 60C 1989 62 1993 64 1997 65C 1999 66 1999 66 2001 68C 2005 71 2010 73 2014 75C 2018 77 2021 79 2024 82C 2025 86 2025 88 2023 91C 2021 93 2020 94 2019 96C 2016 99 2014 102 2012 106C 2012 107 2011 107 2011 108C 2008 113 2006 117 2003 121C 2000 126 1997 131 1994 136C 1994 137 1993 137 1993 138C 1991 140 1991 140 1989 141C 1985 141 1983 139 1980 137C 1979 136 1978 135 1977 135C 1977 134 1976 134 1976 133C 1958 120 1939 113 1918 107C 1917 107 1916 107 1916 107C 1915 106 1914 106 1913 106C 1913 106 1912 106 1911 105C 1905 104 1898 104 1891 104C 1890 104 1889 104 1888 104C 1886 104 1884 104 1882 104C 1879 104 1877 104 1874 104C 1858 104 1845 106 1830 111C 1829 111 1828 111 1827 112C 1813 116 1803 123 1792 132C 1791 133 1790 134 1789 135C 1786 137 1783 139 1781 142C 1780 143 1780 143 1779 144C 1769 153 1762 166 1756 179C 1755 180 1755 181 1754 182C 1753 185 1752 188 1751 192C 1751 193 1750 194 1750 195C 1750 197 1749 198 1749 199C 1749 200 1748 201 1748 202C 1748 203 1748 204 1747 205C 1747 206 1747 206 1747 207C 1741 235 1742 275 1758 299C 1758 300 1758 301 1759 301C 1760 303 1761 306 1762 308C 1769 322 1779 333 1792 343C 1794 345 1796 346 1798 348C 1801 351 1805 353 1809 356C 1809 356 1809 356 1811 357C 1836 376 1878 380 1908 375C 1925 371 1945 365 1957 352C 1957 352 1957 352 1959 350C 1966 345 1971 338 1975 331C 1976 330 1977 328 1977 327C 1981 321 1983 316 1985 309C 1986 306 1988 303 1989 299C 1991 296 1991 294 1990 290C 1988 288 1984 289 1981 289C 1981 289 1981 289 1978 289C 1977 289 1975 289 1973 289C 1970 289 1967 289 1964 289C 1956 289 1948 289 1939 289C 1934 289 1929 289 1924 288C 1922 288 1921 288 1919 288C 1916 288 1913 288 1911 288C 1910 288 1910 288 1908 288C 1904 288 1901 288 1897 285C 1896 282 1896 281 1896 278C 1896 277 1896 277 1896 274C 1896 273 1896 272 1896 271C 1896 270 1896 268 1896 267C 1896 265 1896 262 1896 260C 1896 256 1896 252 1896 248C 1896 245 1896 243 1896 240C 1896 239 1896 238 1896 237C 1896 236 1896 236 1896 233C 1896 233 1896 232 1896 231C 1896 227 1897 226 1900 224C 1903 224 1903 224 1907 224C 1908 224 1908 224 1909 223C 1911 223 1914 224 1916 224C 1917 224 1919 224 1921 224C 1925 223 1930 224 1934 224C 1939 224 1944 224 1948 224C 1956 224 1964 224 1972 224C 1981 224 1990 224 1999 224C 2008 224 2017 224 2026 224C 2029 224 2033 224 2037 224C 2041 224 2045 224 2050 224C 2051 224 2053 224 2055 224C 2057 224 2059 224 2061 224C 2063 224 2064 224 2065 224C 2068 224 2068 224 2071 226C 2072 232 2072 237 2071 242C 2071 243 2071 244 2071 245C 2070 257 2068 269 2066 281C 2066 282 2066 283 2065 284C 2065 287 2065 290 2064 294C 2064 294 2064 295 2064 296C 2063 302 2061 307 2059 312C 2058 314 2057 317 2057 320C 2055 325 2053 330 2050 334C 2049 337 2048 340 2047 343C 2046 346 2044 349 2042 352C 2041 354 2041 356 2040 358C 2037 363 2034 369 2030 374C 2029 375 2029 376 2028 376C 2023 383 2018 389 2012 395C 2011 396 2010 397 2010 398C 2004 403 1999 408 1993 412C 1992 413 1991 413 1990 414C 1979 423 1966 429 1952 433C 1951 434 1949 434 1948 435C 1933 439 1919 441 1904 443C 1900 443 1897 444 1894 444C 1880 446 1866 444 1853 442C 1849 441 1845 441 1841 440C 1830 439 1821 437 1811 434C 1810 434 1809 433 1808 433C 1800 431 1794 428 1787 425C 1786 425 1785 424 1784 424C 1776 420 1768 415 1760 409C 1758 408 1756 406 1754 405C 1744 398 1734 390 1726 381C 1725 379 1723 377 1721 376C 1711 367 1704 356 1697 345C 1696 343 1695 341 1694 340C 1691 334 1687 329 1685 323C 1684 321 1683 319 1682 317C 1674 301 1671 283 1669 265C 1669 264 1669 263 1669 262C 1665 232 1668 200 1678 171C 1679 169 1679 167 1680 165C 1682 156 1687 147 1692 139C 1692 138 1693 138 1693 137C 1695 134 1697 130 1699 127C 1700 126 1700 125 1701 124C 1705 117 1710 111 1715 105C 1716 104 1716 103 1717 102C 1721 99 1724 95 1728 92C 1729 91 1730 90 1730 90C 1738 82 1747 76 1756 70C 1759 69 1761 67 1764 65C 1772 60 1780 56 1788 53C 1789 53 1789 52 1790 52C 1797 49 1804 47 1812 45C 1814 45 1816 44 1818 44C 1860 34 1904 36 1945 46Z"/><path fill="#56AE55" d="M 2244 31C 2248 32 2249 35 2251 38C 2252 39 2252 40 2252 40C 2259 53 2265 66 2271 78C 2273 84 2276 90 2279 96C 2279 97 2280 98 2280 99C 2282 103 2284 106 2287 110C 2288 112 2288 112 2289 115C 2290 118 2292 121 2293 124C 2296 129 2298 134 2300 139C 2303 145 2305 151 2308 157C 2309 158 2309 158 2309 159C 2310 161 2311 163 2312 165C 2312 166 2313 166 2313 167C 2315 170 2316 173 2318 176C 2320 179 2322 183 2324 187C 2324 188 2325 190 2326 191C 2326 192 2327 193 2327 194C 2328 196 2329 198 2330 201C 2333 207 2336 214 2339 221C 2340 223 2341 225 2342 227C 2344 229 2345 231 2345 234C 2346 237 2347 238 2349 240C 2351 244 2353 247 2354 250C 2355 253 2355 253 2357 256C 2359 259 2361 263 2362 266C 2363 268 2363 269 2364 270C 2364 271 2365 272 2365 273C 2371 287 2378 301 2385 315C 2393 329 2400 344 2406 359C 2408 365 2411 370 2414 375C 2416 378 2418 382 2419 385C 2420 387 2420 387 2421 389C 2423 391 2424 394 2425 396C 2426 397 2426 397 2427 400C 2427 400 2427 400 2428 403C 2434 419 2434 419 2438 423C 2439 427 2439 429 2439 433C 2437 435 2435 436 2432 436C 2431 436 2430 436 2429 436C 2428 436 2427 436 2426 436C 2425 436 2425 436 2422 436C 2421 436 2420 436 2419 436C 2415 436 2412 436 2409 436C 2407 436 2405 436 2403 436C 2399 436 2395 436 2391 436C 2390 436 2389 436 2387 436C 2372 436 2372 436 2368 432C 2367 431 2366 430 2366 429C 2365 428 2365 427 2364 426C 2361 422 2359 418 2357 414C 2355 409 2352 405 2349 400C 2345 394 2341 388 2338 381C 2332 370 2332 370 2326 368C 2323 368 2323 368 2320 368C 2319 368 2317 368 2316 368C 2315 368 2313 368 2312 368C 2310 368 2309 368 2307 368C 2303 367 2299 367 2295 367C 2292 367 2290 367 2287 367C 2275 367 2263 367 2251 367C 2248 367 2245 367 2242 367C 2230 367 2217 367 2205 367C 2201 367 2197 367 2193 367C 2188 367 2184 367 2179 367C 2177 367 2175 367 2174 367C 2171 367 2169 367 2166 367C 2166 367 2165 367 2164 367C 2160 367 2157 367 2154 370C 2152 372 2152 372 2151 375C 2151 376 2150 377 2150 378C 2149 379 2149 380 2148 381C 2147 382 2147 383 2146 385C 2143 391 2140 396 2137 402C 2135 408 2132 414 2129 419C 2128 420 2128 422 2127 423C 2127 424 2127 424 2126 425C 2126 426 2125 427 2125 427C 2123 431 2120 434 2116 436C 2113 436 2113 436 2110 436C 2108 436 2107 436 2106 436C 2104 436 2103 436 2102 436C 2100 436 2099 436 2097 436C 2094 436 2091 436 2088 436C 2084 436 2081 436 2077 436C 2074 436 2071 436 2068 436C 2066 436 2065 436 2063 436C 2061 436 2059 436 2057 436C 2056 436 2055 436 2054 436C 2051 436 2049 435 2046 433C 2045 427 2047 423 2050 418C 2051 417 2051 416 2052 416C 2054 413 2055 410 2056 407C 2058 403 2060 398 2063 394C 2065 389 2067 384 2069 379C 2079 358 2079 358 2085 349C 2087 347 2088 344 2089 342C 2090 338 2092 335 2094 332C 2100 319 2106 307 2111 294C 2112 291 2114 289 2116 286C 2117 283 2119 281 2120 278C 2123 272 2123 272 2124 270C 2127 265 2129 259 2132 254C 2132 253 2132 253 2133 252C 2134 249 2136 246 2137 242C 2139 240 2140 237 2141 234C 2142 233 2142 232 2142 231C 2145 227 2147 222 2150 218C 2151 216 2152 213 2154 211C 2154 210 2154 209 2155 209C 2155 208 2156 207 2156 206C 2157 205 2157 203 2158 202C 2160 198 2162 194 2164 190C 2164 189 2164 188 2165 188C 2167 184 2168 181 2170 177C 2175 167 2180 156 2185 146C 2190 138 2194 130 2198 121C 2201 115 2204 108 2207 102C 2207 101 2208 100 2208 99C 2209 97 2210 95 2211 93C 2212 91 2214 89 2215 87C 2217 82 2220 77 2223 72C 2224 70 2225 68 2226 65C 2227 63 2228 61 2229 59C 2233 51 2236 43 2239 35C 2240 32 2241 31 2244 31ZM 2238 185C 2236 189 2234 193 2233 197C 2232 198 2232 199 2231 200C 2229 206 2226 212 2224 219C 2222 223 2220 227 2217 231C 2215 234 2214 237 2213 241C 2212 243 2211 245 2210 247C 2209 250 2207 253 2206 256C 2204 261 2202 266 2199 271C 2199 272 2199 273 2198 274C 2197 278 2195 282 2193 285C 2191 289 2191 289 2191 292C 2192 294 2192 294 2194 296C 2196 296 2196 296 2198 296C 2199 296 2199 296 2201 296C 2202 296 2203 296 2204 296C 2205 296 2205 296 2207 296C 2210 296 2213 296 2216 296C 2219 296 2221 296 2223 296C 2228 296 2233 296 2238 296C 2244 296 2250 296 2256 296C 2261 296 2265 296 2270 296C 2272 296 2274 296 2277 296C 2280 296 2283 296 2286 296C 2287 296 2287 296 2289 296C 2295 296 2295 296 2299 294C 2299 294 2300 294 2300 293C 2299 288 2299 284 2296 280C 2295 276 2293 273 2291 269C 2291 268 2291 267 2290 267C 2290 265 2289 264 2289 263C 2287 259 2285 255 2282 252C 2281 250 2280 248 2279 246C 2279 242 2277 239 2276 236C 2271 227 2267 218 2263 208C 2262 205 2260 201 2258 197C 2257 196 2257 194 2256 192C 2253 187 2251 183 2247 179C 2242 177 2240 181 2238 185Z"/><path fill="#56AE55" d="M 1420 47C 1421 47 1422 47 1422 47C 1423 47 1423 47 1425 47C 1426 47 1427 47 1428 47C 1431 47 1434 47 1437 47C 1439 47 1441 47 1443 47C 1449 47 1455 47 1461 47C 1467 47 1473 47 1479 47C 1490 47 1500 47 1510 47C 1522 47 1534 48 1546 47C 1557 47 1569 47 1580 48C 1585 48 1590 48 1595 48C 1601 48 1606 48 1612 48C 1614 48 1616 48 1619 48C 1621 48 1624 48 1627 48C 1628 48 1629 48 1630 48C 1633 48 1636 48 1638 49C 1641 52 1641 55 1641 59C 1641 60 1641 61 1641 62C 1641 63 1641 63 1641 65C 1641 67 1641 68 1641 69C 1641 71 1641 74 1641 76C 1641 80 1641 84 1641 87C 1641 90 1641 92 1641 94C 1641 95 1641 96 1641 98C 1641 99 1641 100 1641 101C 1641 101 1641 101 1641 103C 1641 107 1640 108 1638 111C 1634 113 1631 113 1627 113C 1626 113 1624 113 1623 113C 1622 113 1621 113 1619 113C 1618 113 1616 113 1615 113C 1612 113 1609 113 1606 113C 1601 113 1596 113 1591 113C 1580 113 1569 113 1558 113C 1548 113 1537 113 1527 113C 1522 113 1518 113 1513 113C 1510 113 1507 113 1504 113C 1503 113 1501 113 1500 113C 1498 113 1496 113 1494 113C 1493 113 1492 113 1491 113C 1488 113 1486 114 1483 115C 1482 118 1482 121 1482 124C 1482 125 1482 125 1482 126C 1482 128 1482 131 1482 133C 1482 135 1482 136 1482 138C 1482 142 1482 147 1481 151C 1481 155 1481 160 1481 164C 1481 173 1481 181 1481 190C 1484 191 1487 191 1490 191C 1491 191 1492 191 1493 191C 1494 191 1495 191 1497 191C 1498 191 1499 191 1500 191C 1503 191 1507 191 1510 191C 1513 191 1517 191 1520 191C 1532 191 1543 191 1555 191C 1561 191 1568 191 1574 191C 1577 192 1581 192 1584 192C 1588 192 1592 192 1595 192C 1597 192 1598 192 1599 192C 1600 192 1601 192 1602 192C 1602 192 1602 192 1605 192C 1608 192 1609 193 1611 195C 1612 197 1612 197 1612 201C 1612 202 1612 203 1612 204C 1612 205 1612 206 1612 208C 1612 209 1612 210 1612 211C 1612 214 1612 217 1612 219C 1611 223 1612 226 1612 230C 1612 233 1612 236 1612 239C 1612 240 1612 242 1612 243C 1612 243 1612 243 1612 246C 1612 247 1612 248 1612 249C 1611 253 1610 254 1607 256C 1605 256 1605 256 1602 256C 1601 256 1600 257 1599 257C 1598 257 1598 257 1595 256C 1595 256 1595 256 1592 256C 1589 257 1585 256 1582 256C 1579 256 1575 256 1572 256C 1563 257 1553 257 1544 256C 1535 256 1527 256 1518 257C 1515 257 1511 257 1508 257C 1504 256 1500 257 1497 257C 1496 257 1496 257 1493 256C 1492 256 1491 256 1490 257C 1490 257 1490 257 1487 257C 1484 257 1483 258 1481 261C 1480 263 1480 263 1481 265C 1480 266 1480 267 1480 267C 1480 268 1480 269 1481 270C 1481 271 1481 272 1480 273C 1480 276 1481 279 1481 282C 1481 284 1481 286 1481 288C 1481 292 1481 297 1481 301C 1481 307 1481 312 1481 318C 1481 322 1481 326 1481 331C 1481 333 1481 335 1481 337C 1481 340 1481 343 1481 345C 1481 346 1481 347 1481 348C 1481 362 1481 362 1484 365C 1486 365 1488 365 1490 365C 1491 365 1492 365 1493 365C 1495 365 1497 365 1499 365C 1501 365 1503 365 1504 365C 1508 365 1512 365 1515 365C 1521 365 1526 365 1532 365C 1534 365 1536 365 1538 365C 1539 365 1540 365 1541 365C 1554 365 1567 365 1580 365C 1589 365 1598 365 1606 365C 1611 365 1616 365 1620 365C 1625 365 1629 365 1634 365C 1635 365 1637 365 1639 365C 1641 365 1643 365 1645 365C 1646 365 1648 365 1649 365C 1653 366 1654 367 1656 370C 1657 373 1657 373 1657 376C 1657 376 1657 376 1657 379C 1657 380 1657 381 1657 383C 1657 384 1657 385 1657 386C 1657 389 1657 392 1657 394C 1657 398 1657 401 1657 404C 1657 408 1657 411 1657 414C 1657 415 1657 417 1657 418C 1657 419 1657 420 1657 421C 1657 422 1657 423 1657 424C 1656 428 1654 430 1651 432C 1648 433 1645 433 1642 433C 1641 433 1640 433 1639 433C 1635 433 1632 433 1629 433C 1627 432 1624 432 1622 432C 1616 432 1610 432 1603 432C 1597 432 1590 432 1584 432C 1573 432 1562 432 1551 432C 1540 432 1528 432 1517 432C 1517 432 1517 432 1515 432C 1514 432 1514 432 1513 432C 1511 432 1510 432 1509 432C 1508 432 1507 432 1507 432C 1495 432 1484 432 1472 432C 1468 432 1464 432 1461 432C 1454 432 1448 431 1442 431C 1440 431 1438 431 1436 431C 1432 431 1429 431 1426 431C 1426 431 1426 431 1424 431C 1423 431 1422 431 1421 431C 1420 431 1420 431 1419 431C 1417 431 1415 430 1413 429C 1411 425 1411 424 1411 420C 1411 419 1411 417 1411 416C 1411 414 1411 413 1411 412C 1411 410 1411 408 1411 407C 1411 403 1411 398 1411 394C 1411 390 1411 385 1411 380C 1411 371 1411 361 1411 351C 1411 344 1411 338 1411 332C 1411 315 1411 297 1411 280C 1411 279 1411 278 1411 277C 1411 275 1411 272 1411 270C 1411 269 1411 268 1411 267C 1411 266 1411 264 1411 263C 1411 245 1411 227 1411 209C 1410 191 1410 172 1410 154C 1410 143 1410 133 1410 123C 1410 114 1410 105 1410 96C 1410 91 1410 87 1410 82C 1410 78 1410 74 1410 70C 1410 69 1410 67 1410 66C 1410 63 1410 61 1410 59C 1410 58 1410 57 1410 56C 1411 51 1415 47 1420 47Z"/><path fill="#56AE55" d="M 1082 47C 1083 47 1084 47 1085 47C 1086 47 1086 47 1088 47C 1090 47 1091 47 1092 47C 1095 47 1099 47 1102 47C 1105 47 1109 47 1112 47C 1119 47 1126 47 1133 47C 1139 47 1144 47 1150 47C 1166 47 1182 47 1198 47C 1199 47 1200 47 1201 47C 1201 47 1201 47 1203 47C 1217 47 1231 47 1245 47C 1259 47 1274 47 1288 47C 1296 47 1304 47 1312 47C 1319 47 1326 47 1333 47C 1336 47 1340 47 1343 47C 1347 47 1351 47 1355 47C 1355 47 1355 47 1358 47C 1359 47 1360 47 1361 47C 1362 47 1363 47 1364 47C 1367 48 1368 50 1370 52C 1371 54 1371 56 1371 59C 1371 60 1371 61 1371 62C 1371 63 1371 63 1371 65C 1371 67 1371 68 1371 69C 1371 71 1371 74 1371 76C 1371 80 1371 83 1371 87C 1371 90 1371 92 1371 94C 1371 95 1371 96 1371 98C 1371 99 1371 100 1371 101C 1371 102 1371 103 1371 103C 1371 107 1370 108 1368 111C 1362 113 1357 113 1351 113C 1350 113 1349 113 1348 113C 1346 113 1344 113 1342 113C 1338 113 1335 113 1332 113C 1322 113 1313 113 1303 113C 1297 113 1291 113 1285 113C 1283 113 1281 113 1279 113C 1276 113 1273 113 1270 113C 1269 113 1269 113 1267 113C 1266 113 1265 113 1264 113C 1263 113 1263 113 1262 113C 1259 113 1259 114 1257 116C 1256 119 1256 122 1256 125C 1256 126 1256 127 1256 129C 1256 130 1256 131 1256 132C 1256 133 1256 133 1256 136C 1256 139 1256 143 1256 146C 1256 150 1256 154 1256 158C 1256 164 1256 170 1256 177C 1256 186 1256 196 1256 205C 1256 220 1256 236 1256 251C 1256 251 1256 251 1256 254C 1256 267 1256 279 1256 292C 1256 293 1256 294 1256 295C 1256 296 1256 297 1256 298C 1255 313 1255 328 1255 343C 1255 353 1255 362 1255 372C 1255 378 1255 384 1255 391C 1255 394 1255 398 1255 402C 1255 406 1255 410 1255 414C 1255 415 1255 416 1255 417C 1255 418 1255 418 1255 421C 1255 422 1255 423 1255 424C 1255 426 1254 428 1253 430C 1250 431 1248 431 1245 431C 1244 431 1243 431 1241 431C 1240 431 1239 431 1237 431C 1237 431 1236 431 1235 431C 1232 431 1228 431 1225 431C 1221 431 1217 431 1213 431C 1211 431 1208 431 1205 431C 1204 431 1202 431 1201 431C 1199 431 1197 431 1195 431C 1194 431 1193 431 1192 431C 1188 431 1187 430 1185 427C 1184 424 1184 422 1184 419C 1184 418 1184 417 1184 416C 1184 414 1184 413 1184 412C 1184 411 1184 411 1184 408C 1184 405 1184 403 1184 400C 1184 395 1184 391 1184 386C 1184 380 1184 373 1184 367C 1184 357 1184 346 1184 336C 1184 333 1184 329 1184 326C 1184 325 1184 324 1184 323C 1184 313 1184 303 1184 293C 1184 292 1184 291 1184 290C 1184 275 1184 260 1184 246C 1184 230 1184 215 1184 200C 1184 190 1184 181 1184 172C 1184 165 1184 159 1184 152C 1184 149 1184 145 1184 141C 1184 137 1184 133 1184 129C 1184 128 1184 127 1184 126C 1184 124 1184 123 1184 122C 1184 121 1184 120 1184 119C 1183 116 1182 115 1179 113C 1177 113 1177 113 1175 113C 1174 113 1174 113 1172 113C 1171 113 1170 113 1169 113C 1168 113 1167 113 1166 113C 1164 113 1162 113 1160 113C 1156 113 1153 113 1149 113C 1141 113 1132 113 1124 113C 1117 113 1109 113 1102 113C 1099 113 1096 113 1092 113C 1090 113 1088 113 1086 113C 1085 113 1084 113 1083 113C 1079 113 1077 113 1073 111C 1070 108 1070 105 1070 100C 1070 99 1070 98 1070 97C 1070 96 1070 95 1070 94C 1070 93 1070 92 1070 91C 1070 89 1070 86 1070 84C 1070 81 1070 77 1070 74C 1070 72 1070 69 1070 67C 1070 66 1070 65 1070 64C 1070 58 1070 54 1073 49C 1076 47 1078 47 1082 47Z"/><path fill="#56AE55" d="M 1043 50C 1045 53 1045 55 1045 59C 1045 60 1045 61 1045 62C 1045 63 1045 63 1045 65C 1045 67 1045 68 1045 69C 1045 71 1045 74 1045 76C 1045 80 1045 83 1045 87C 1045 90 1045 92 1045 94C 1045 95 1045 96 1045 98C 1045 99 1045 100 1045 101C 1045 102 1045 103 1045 103C 1045 107 1044 108 1042 111C 1037 113 1031 113 1026 113C 1025 113 1024 113 1023 113C 1021 113 1019 113 1017 113C 1014 113 1010 113 1007 113C 999 113 991 113 984 113C 977 113 970 113 964 113C 960 113 957 113 954 113C 952 113 950 113 948 113C 948 113 947 113 946 113C 941 113 937 113 932 115C 931 118 931 119 931 122C 931 123 931 123 931 125C 931 126 931 128 931 129C 931 130 931 131 931 133C 931 136 931 140 931 143C 931 147 931 150 931 154C 931 161 931 167 931 174C 931 184 931 194 931 204C 931 208 931 211 931 215C 931 215 931 215 931 218C 931 228 931 238 931 248C 931 248 931 249 931 250C 931 265 931 280 931 295C 931 310 931 325 931 340C 930 349 930 359 930 368C 930 375 930 381 930 387C 930 391 930 395 930 399C 930 403 930 407 930 411C 930 412 930 413 930 414C 930 420 930 425 927 430C 921 433 914 432 908 432C 907 432 905 432 904 432C 902 432 899 432 897 432C 893 432 889 432 885 432C 883 432 880 432 878 432C 877 432 876 432 875 432C 867 431 867 431 863 429C 860 426 860 423 860 419C 860 418 860 417 860 416C 860 414 860 413 860 412C 860 411 860 410 860 408C 860 405 860 401 860 398C 860 394 860 390 860 387C 860 380 860 374 860 367C 860 357 860 347 860 336C 860 333 860 329 860 326C 860 325 860 324 860 323C 860 313 860 303 860 293C 860 292 860 291 860 290C 860 276 860 261 860 246C 860 231 860 216 860 201C 859 191 859 182 859 172C 859 166 859 160 859 153C 859 150 859 146 859 142C 859 138 859 134 859 130C 859 129 859 128 859 127C 859 125 859 124 859 123C 859 123 859 123 859 120C 859 118 858 116 856 114C 853 113 851 113 848 113C 848 113 848 113 846 113C 845 113 844 113 843 113C 842 113 841 113 840 113C 838 113 836 113 834 113C 831 113 828 113 825 113C 817 113 809 113 801 113C 795 113 788 113 781 113C 778 113 775 113 772 113C 770 113 768 113 766 113C 766 113 766 113 764 113C 751 113 751 113 748 110C 745 107 745 104 745 100C 745 99 745 98 745 97C 745 96 745 95 745 94C 745 93 745 92 745 91C 745 88 745 86 745 84C 745 80 745 77 745 73C 745 71 745 69 745 66C 745 65 745 64 745 63C 745 54 745 54 748 50C 751 48 752 48 756 48C 756 48 756 48 759 48C 759 48 759 48 762 48C 763 48 764 48 765 48C 769 48 772 48 775 48C 778 48 782 48 785 48C 792 48 799 48 805 48C 811 48 816 47 822 47C 823 47 823 47 824 47C 826 47 827 47 829 47C 844 47 859 47 873 47C 886 47 899 47 911 47C 926 47 941 47 956 47C 957 47 959 47 960 47C 961 47 961 47 963 47C 968 47 974 47 979 47C 986 47 992 47 999 47C 1002 47 1006 47 1009 47C 1013 47 1017 47 1020 47C 1021 47 1022 47 1023 47C 1038 47 1038 47 1043 50Z"/><path fill="#4C9349" d="M 518 17C 521 17 521 17 524 17C 527 22 529 27 530 32C 531 35 532 38 534 40C 536 43 537 46 538 50C 538 51 538 53 539 54C 539 55 539 55 539 56C 540 59 541 61 542 64C 542 65 543 65 543 66C 544 69 546 70 548 71C 550 71 550 71 553 71C 554 71 554 71 556 71C 557 71 558 71 559 71C 561 71 562 71 563 71C 566 72 570 72 574 72C 577 72 581 72 584 72C 587 72 589 72 591 72C 592 72 593 72 594 72C 595 72 596 72 597 72C 599 72 599 72 602 74C 602 78 601 79 598 82C 597 83 596 84 594 85C 593 86 592 87 590 88C 590 89 589 90 588 90C 584 94 580 98 576 102C 572 105 568 109 564 112C 562 114 562 115 562 118C 562 121 563 123 564 126C 567 131 568 137 570 142C 571 145 572 148 572 150C 573 151 573 152 573 152C 574 154 574 155 575 157C 576 160 576 162 575 165C 575 166 574 166 574 167C 568 168 564 165 559 161C 551 156 542 151 534 146C 533 146 532 145 532 145C 527 142 522 141 517 142C 513 144 510 146 506 148C 505 148 504 149 504 149C 498 153 492 157 487 161C 486 161 486 161 484 162C 482 164 481 165 479 167C 477 168 477 168 475 168C 472 166 472 166 472 164C 472 158 473 153 474 148C 475 146 475 144 476 142C 476 141 476 141 476 140C 477 136 478 131 479 127C 479 127 480 126 480 125C 481 119 482 113 479 108C 478 106 476 104 474 102C 473 102 472 101 471 100C 471 99 471 99 471 98C 471 98 471 98 469 97C 466 96 464 94 461 91C 458 88 454 85 450 83C 446 79 446 79 445 77C 445 76 445 76 445 75C 448 72 450 72 454 72C 454 72 455 72 456 72C 457 72 458 72 459 72C 461 72 463 72 465 72C 468 72 471 72 475 72C 478 72 481 72 484 72C 485 72 486 72 487 72C 491 71 493 71 497 69C 501 65 503 60 504 55C 506 48 508 42 511 35C 512 31 514 27 515 22C 516 20 516 20 518 17Z"/></svg>